<mxfile host="app.diagrams.net" modified="2023-11-23T08:03:28.454Z" agent="Mozilla/5.0 (Windows NT 10.0; Win64; x64) AppleWebKit/537.36 (KHTML, like Gecko) Chrome/95.0.4638.69 Safari/537.36" version="22.1.3" etag="YiPx0z6mX4fN5tTpCjCN" type="github">
  <diagram name="第 1 页" id="Rc7vbcMKgigmsploulTY">
    <mxGraphModel>
      <root>
        <mxCell id="0" />
        <mxCell id="1" parent="0" />
      </root>
    </mxGraphModel>
  </diagram>
</mxfile>
